<svg xmlns="http://www.w3.org/2000/svg" width="500" height="500" viewBox="0 0 500 500">
  <path fill="none" d="M 44.10 85.99 L 45.64 92.40 L 48.75 102.03 L 50.95 107.52 L 55.45 115.85 L 61.22 127.60 L 64.71 133.95 L 68.25 140.34 L 75.13 151.51 L 78.22 156.85 L 81.89 163.21 L 85.34 169.65 L 93.19 184.46 L 100.76 198.50 L 103.93 205.17 L 110.00 217.63 L 115.14 229.37 L 118.19 235.17 L 121.60 242.49 L 128.31 255.64 L 132.04 262.76 L 135.32 269.62 L 141.07 280.56 L 143.26 284.90 L 146.00 290.06 L 149.04 295.60 L 154.48 306.54 L 156.07 310.25 L 158.42 314.90 L 163.39 324.18 L 168.23 334.90 L 172.30 344.18 L 174.50 348.92 L 176.60 353.43 L 180.88 363.54 L 183.50 369.62 L 186.28 375.90 L 188.63 382.15 L 190.05 385.35 L 192.11 389.92 L 193.40 392.75 L 195.69 398.08 L 196.80 400.50 L 199.32 405.23 L 201.61 409.32 L 202.92 411.97 L 203.70 413.01 L 204.39 413.79 L 204.84 414.40 L 205.03 414.62 L 205.21 414.81 L 205.54 414.98 L 206.41 416.83 L 207.74 418.82 L 209.86 421.77 L 214.59 428.93 L 217.22 432.75 L 222.28 439.54 L 226.07 444.47 L 229.88 450.07 L 232.42 453.77 L 234.02 455.86 L 234.65 456.68 L 234.82 457.02 L 234.89 457.43 L 234.89 456.97 L 234.73 456.46 L 234.57 456.07 L 234.53 455.04 L 234.53 454.33 L 234.53 454.02 L 234.53 453.64 L 234.53 453.29 L 234.53 452.37 L 235.30 451.16 L 237.28 449.56 L 247.59 442.31 L 257.45 435.39 L 271.06 424.51 L 278.95 417.83 L 283.82 413.40 L 288.65 408.94 L 297.69 399.68 L 306.12 390.58 L 313.48 383.16 L 316.79 379.24 L 325.26 368.19 L 330.36 360.89 L 335.28 353.22 L 339.44 346.66 L 342.77 341.86 L 349.22 332.82 L 354.31 326.09 L 357.47 321.99 L 362.27 315.49 L 367.23 307.71 L 373.24 299.86 L 382.30 286.33 L 392.79 270.60 L 399.11 260.93 L 407.91 247.68 L 416.44 233.56 L 426.92 215.79 L 435.14 202.00 L 439.43 194.82 L 448.04 180.80 L 455.73 168.88 L 458.80 164.66 L 462.60 159.08 L 466.48 154.12 L 469.00 150.53 L 473.83 144.25 L 475.40 142.37 L 476.89 140.61 L 480.03 137.21 L 481.83 135.05 L 482.66 134.17 L 483.32 133.48 L 483.76 133.03 L 484.49 132.29 L 484.84 132.11 L 485.06 131.88 L 485.65 130.77 L 486.63 129.38 L 488.56 127.12 L 490.78 124.84 L 494.45 121.28 L 497.41 118.39 L 498.11 117.60 L 499.12 116.25 L 499.83 115.64 L 500.00 115.31 L 499.88 115.11 L 499.56 115.11 L 499.25 115.11 L 498.09 114.12 L 495.12 111.00 L 493.23 108.87 L 490.56 106.11 L 488.66 104.37 L 480.90 97.70 L 474.48 92.13 L 468.87 87.26 L 462.49 81.95 L 456.36 76.83 L 450.34 72.01 L 444.80 67.30 L 442.23 65.49 L 438.71 62.66 L 436.98 61.15 L 435.45 59.66 L 432.71 56.95 L 431.71 56.16 L 430.75 55.41 L 429.69 54.35 L 429.09 54.02 L 428.72 53.69 L 427.37 52.55 L 425.94 51.32 L 424.81 50.58 L 424.54 50.40 L 423.55 49.78 L 422.46 49.13 L 420.10 47.57 L 419.47 47.13 L 417.51 45.81 L 415.37 44.04 L 413.13 42.54 L 411.27 41.03 L 410.55 40.34 L 409.93 39.90 L 409.22 39.37 L 409.05 39.04 L 408.88 38.88 L 408.35 38.50 L 406.17 36.34 L 404.84 34.69 L 402.89 32.98 L 402.62 32.58 L 402.41 32.37 L 402.07 32.34 L 401.89 32.81 L 401.78 33.77 L 400.22 35.86 L 398.10 38.83 L 392.98 46.17 L 389.36 51.21 L 386.04 56.30 L 382.48 62.15 L 377.60 70.31 L 373.60 76.87 L 366.19 88.54 L 361.88 94.45 L 356.76 101.92 L 350.03 111.85 L 348.68 113.60 L 344.84 118.84 L 340.18 124.75 L 335.90 130.39 L 333.94 133.15 L 330.30 138.07 L 327.36 142.31 L 323.27 148.54 L 317.19 159.20 L 315.93 161.46 L 313.51 165.49 L 311.40 168.94 L 310.14 171.16 L 307.69 175.43 L 305.13 179.53 L 303.17 182.94 L 302.44 184.38 L 301.51 186.22 L 299.10 190.12 L 297.27 193.07 L 295.29 196.58 L 294.63 197.89 L 293.52 199.84 L 291.89 202.27 L 289.94 205.60 L 288.02 208.74 L 286.43 211.47 L 285.55 213.01 L 283.77 216.15 L 281.44 219.80 L 280.76 220.91 L 279.77 222.33 L 279.10 223.18 L 278.82 223.46 L 277.26 225.16 L 276.55 226.21 L 275.68 227.32 L 274.20 228.65 L 273.53 229.50 L 273.25 229.77 L 273.00 230.19 L 272.83 230.53 L 272.50 230.85 L 271.13 232.21 L 270.33 233.22 L 269.66 234.10 L 269.21 234.68 L 267.98 236.11 L 266.24 237.75 L 264.80 239.19 L 263.73 240.06 L 262.35 241.05 L 261.89 241.50 L 261.47 241.91 L 260.47 243.05 L 260.27 243.26 L 259.94 243.43 L 259.44 243.75 L 257.53 245.68 L 256.19 247.20 L 254.82 248.69 L 254.18 249.51 L 253.80 249.90 L 253.46 250.10 L 253.14 250.10 L 252.84 250.10 L 252.51 250.10 L 252.16 250.10 L 251.85 250.10 L 251.19 249.76 L 251.00 249.23 L 250.72 248.87 L 250.17 247.92 L 249.97 247.52 L 249.81 247.17 L 249.12 245.98 L 247.72 243.95 L 245.39 240.11 L 242.26 235.56 L 238.90 229.51 L 236.19 225.12 L 234.71 222.90 L 233.36 220.66 L 230.91 216.76 L 229.06 213.05 L 227.64 210.70 L 225.90 207.72 L 223.46 203.97 L 221.87 201.21 L 220.01 198.15 L 218.12 194.84 L 216.19 190.76 L 214.27 186.51 L 211.38 180.73 L 207.14 172.47 L 204.29 167.23 L 202.98 164.62 L 201.96 162.36 L 201.07 160.71 L 198.11 155.55 L 197.20 153.93 L 195.30 150.78 L 193.45 147.53 L 191.22 144.09 L 190.27 141.94 L 189.08 139.65 L 186.54 134.93 L 184.39 130.92 L 181.87 126.39 L 180.23 123.11 L 178.63 120.08 L 177.10 116.61 L 176.18 115.15 L 175.49 113.76 L 174.81 112.20 L 172.88 107.80 L 172.33 106.52 L 171.17 103.35 L 170.48 101.70 L 169.80 100.24 L 169.13 98.90 L 167.30 95.33 L 166.80 94.31 L 166.20 93.07 L 165.54 91.76 L 164.13 88.47 L 162.48 85.12 L 160.41 81.07 L 159.32 78.98 L 158.35 77.09 L 155.44 72.15 L 152.24 66.28 L 149.47 61.45 L 147.75 58.45 L 146.11 55.60 L 144.24 52.15 L 143.52 50.87 L 143.32 50.49 L 143.11 50.26 L 142.92 50.06 L 142.76 49.89 L 142.59 49.72 L 142.44 49.57 L 142.28 49.39 L 141.53 48.11 L 140.92 47.05 L 139.25 43.99 L 137.16 40.54 L 136.16 38.86 L 135.19 37.45 L 134.99 37.08 L 134.82 36.76 L 134.66 36.60 L 134.35 36.13 L 133.64 35.22 L 132.88 34.08 L 131.80 32.70 L 131.28 31.80 L 131.07 31.41 L 130.72 31.17 L 130.52 30.95 L 130.35 30.76 L 130.04 30.76 L 129.89 30.91 L 129.56 31.53 L 129.01 31.94 L 128.65 32.63 L 128.37 32.91 L 127.17 33.93 L 126.35 34.55 L 124.04 36.67 L 120.48 40.23 L 117.41 43.21 L 114.15 46.22 L 112.64 47.70 L 109.52 50.79 L 107.35 52.74 L 105.54 54.55 L 104.09 56.19 L 102.51 57.57 L 101.23 58.81 L 100.32 59.78 L 99.11 60.91 L 97.84 62.00 L 97.05 62.75 L 96.66 63.15 L 95.84 63.54 L 93.98 64.96 L 93.12 65.67 L 92.56 66.03 L 92.13 66.40 L 91.39 66.85 L 89.83 67.82 L 88.86 68.43 L 86.76 70.09 L 85.05 71.38 L 83.21 72.59 L 82.31 73.16 L 81.41 73.55 L 80.03 74.39 L 78.77 75.24 L 77.38 76.16 L 73.41 78.86 L 70.67 80.72 L 67.95 82.27 L 64.57 84.20 L 61.50 85.85 L 60.38 86.51 L 57.25 88.08 L 55.78 88.94 L 52.13 90.78 L 47.73 93.52 L 45.08 95.05 L 43.45 96.08 L 43.02 96.46 L 42.60 96.69 L 42.24 96.88 L 42.23 97.04 L 42.88 97.04 L 43.18 97.04 L 43.79 97.04 L 44.71 97.04 L 45.75 97.04 L 129.34 35.94 L 129.34 38.54 L 128.84 45.64 L 127.46 52.88 L 126.60 59.02 L 126.07 61.95 L 125.51 65.06 L 124.96 68.09 L 122.42 78.66 L 120.29 85.13 L 118.29 91.77 L 116.38 97.40 L 114.31 104.34 L 112.38 110.47 L 110.32 115.89 L 109.55 117.68 L 107.12 124.37 L 105.24 129.84 L 103.37 136.46 L 101.88 141.03 L 101.02 144.87 L 100.06 148.75 L 99.04 152.80 L 98.55 154.75 L 97.69 158.91 L 97.29 161.57 L 96.89 163.63 L 96.70 164.59 L 96.66 165.80 L 96.46 166.86 L 95.80 171.00 L 95.28 173.80 L 94.76 177.41 L 94.06 180.77 L 93.83 182.10 L 93.42 183.90 L 93.23 185.07 L 93.23 185.51 L 93.23 185.85 L 93.23 186.23 L 93.23 186.54 L 93.23 186.84 L 93.23 187.16 L 93.23 187.66 L 93.23 189.19 L 93.23 189.98 L 93.23 190.74 L 93.23 191.30 L 93.23 192.18 L 93.23 192.60 L 93.23 193.03 L 93.38 193.26 L 95.21 193.26 L 96.83 193.26 L 99.66 193.26 L 102.77 193.10 L 110.13 191.38 L 112.83 190.81 L 116.67 189.75 L 129.69 187.11 L 135.60 185.84 L 141.67 184.68 L 148.54 183.70 L 154.58 182.60 L 159.74 182.06 L 161.51 181.68 L 163.19 181.48 L 167.90 180.95 L 170.49 180.70 L 174.81 179.93 L 179.55 179.45 L 182.95 179.30 L 185.97 179.02 L 189.17 178.79 L 191.90 178.55 L 194.04 178.53 L 195.47 178.52 L 195.89 178.52 L 196.27 178.52 L 196.66 178.52 L 197.39 178.52 L 198.01 178.52 L 199.33 178.38 L 200.58 178.19 L 202.42 178.17 L 203.84 178.16 L 204.38 178.16 L 204.80 178.16 L 205.16 178.16 L 205.48 178.16 L 206.11 178.16 L 206.55 178.16 L 207.73 178.16 L 208.32 178.16 L 209.08 178.16 L 209.77 177.81 L 209.78 177.81 L 209.49 177.95 L 209.17 178.41 L 207.83 182.62 L 206.27 188.30 L 205.10 192.88 L 204.05 198.60 L 202.62 203.30 L 201.49 208.66 L 200.45 214.34 L 200.05 216.34 L 198.45 222.36 L 197.99 224.89 L 196.88 231.05 L 195.27 236.94 L 194.78 239.40 L 192.80 248.44 L 191.64 254.63 L 190.55 260.66 L 189.24 266.55 L 188.21 272.85 L 187.64 275.39 L 187.11 279.12 L 186.63 283.10 L 185.94 286.36 L 185.77 287.75 L 185.40 289.56 L 185.14 291.51 L 184.41 295.45 L 183.92 297.72 L 183.41 300.03 L 182.69 303.80 L 182.05 307.75 L 181.67 309.27 L 181.21 310.89 L 180.22 316.17 L 179.76 317.81 L 179.31 319.41 L 179.09 320.97 L 178.15 325.00 L 177.46 327.67 L 177.01 329.72 L 176.80 330.38 L 176.62 331.11 L 176.62 331.39 L 176.62 331.70 L 176.62 332.07 L 176.46 332.25 L 176.30 332.38 L 176.30 333.18 L 175.88 335.93 L 175.48 337.37 L 175.48 337.99 L 175.48 338.62 L 175.63 338.70 L 176.18 338.06 L 178.19 335.38 L 179.18 334.39 L 183.83 329.99 L 186.71 327.37 L 193.96 320.99 L 199.14 316.14 L 204.46 311.61 L 209.16 307.22 L 212.98 303.41 L 214.58 302.05 L 219.51 297.11 L 221.16 295.45 L 222.40 293.81 L 224.89 290.81 L 226.33 289.35 L 228.82 286.85 L 229.68 285.98 L 230.79 284.86 L 231.92 283.73 L 234.26 281.39 L 234.91 280.73 L 235.50 280.14 L 236.63 278.99 L 238.41 277.20 L 239.25 276.52 L 240.15 275.81 L 243.73 272.04 L 244.83 270.93 L 246.94 268.71 L 248.17 267.34 L 250.04 264.89 L 251.18 262.92 L 252.39 261.43 L 253.70 258.98 L 254.81 256.79 L 255.21 255.89 L 255.93 254.93 L 256.10 254.59 L 256.30 254.20 L 256.48 253.84 L 256.63 253.35 L 256.98 252.24 L 257.40 250.95 L 258.21 249.03 L 258.53 248.18 L 259.18 247.13 L 259.62 246.47 L 259.86 246.04 L 259.86 245.71 L 260.01 245.50 L 260.32 245.49 L 260.62 245.49 L 260.94 245.49 L 262.07 245.70 L 265.25 247.11 L 270.59 250.08 L 278.17 255.09 L 284.61 259.34 L 291.70 264.07 L 297.52 268.73 L 299.90 270.55 L 304.01 274.34 L 307.82 278.27 L 312.60 282.93 L 315.94 285.88 L 320.20 289.41 L 324.78 292.71 L 329.23 295.87 L 332.61 298.37 L 333.63 299.05 L 334.70 299.86 L 336.38 301.16 L 336.72 301.69 L 337.12 302.16 L 337.48 302.53 L 338.18 302.89 L 338.49 303.20 L 339.09 303.96 L 340.99 306.06 L 341.84 306.94 L 343.74 308.60 L 344.15 309.09 L 345.15 309.82 L 345.44 310.11 L 345.84 310.51 L 346.23 310.73 L 346.82 311.15 L 347.45 311.77 L 347.80 312.13 L 348.18 312.50 L 348.55 312.72 L 348.92 312.92 L 349.28 313.27 L 350.39 313.99 L 351.12 314.42 L 351.66 314.61 L 352.05 314.79 L 352.47 315.00 L 352.98 315.36 L 353.21 315.53 L 353.53 315.53 L 353.84 315.53 L 354.50 315.86 L 354.86 316.04 L 356.11 316.21 L 356.19 316.21 L 355.94 316.21 L 355.60 315.72 L 355.42 315.36 L 354.72 312.43 L 354.20 306.95 L 353.72 302.84 L 352.66 296.20 L 352.08 292.71 L 351.77 289.97 L 351.51 288.00 L 350.72 285.07 L 350.53 284.26 L 349.91 281.58 L 348.94 278.14 L 348.51 275.54 L 348.31 274.63 L 347.84 271.97 L 347.18 267.31 L 346.90 265.58 L 346.67 264.21 L 346.45 262.95 L 345.99 257.70 L 345.58 255.01 L 345.31 252.28 L 344.89 249.94 L 343.60 242.59 L 343.39 241.33 L 342.96 239.06 L 342.82 238.41 L 342.65 237.01 L 341.90 232.64 L 341.22 228.56 L 340.83 226.94 L 340.69 226.33 L 340.30 223.15 L 339.86 220.43 L 339.46 218.45 L 339.00 215.01 L 338.71 212.64 L 338.71 210.30 L 338.28 207.67 L 338.28 201.98 L 338.28 197.16 L 338.14 196.39 L 337.92 190.69 L 337.90 187.45 L 337.89 183.78 L 337.88 177.86 L 337.88 171.70 L 337.88 168.12 L 337.88 161.61 L 337.88 156.55 L 337.66 154.25 L 336.82 147.04 L 336.19 144.02 L 335.91 142.49 L 335.46 140.43 L 335.23 139.17 L 335.23 138.61 L 334.94 137.92 L 334.91 136.91 L 334.75 136.28 L 334.54 135.17 L 334.54 134.61 L 334.44 133.75 L 334.29 133.47 L 334.22 133.09 L 334.50 132.85 L 336.49 132.82 L 341.31 133.56 L 348.91 135.13 L 353.57 136.11 L 360.89 138.03 L 363.88 138.93 L 369.63 141.00 L 372.81 142.33 L 378.41 144.26 L 380.39 145.05 L 385.19 146.97 L 390.64 149.58 L 395.13 151.69 L 398.86 153.55 L 400.32 154.28 L 405.11 156.83 L 407.24 157.93 L 413.46 161.53 L 415.43 162.77 L 419.01 165.07 L 421.67 167.03 L 424.18 168.33 L 425.57 169.19 L 426.55 169.95 L 426.83 170.12 L 427.79 170.25 L 428.46 170.43 L 429.38 170.61 L 431.25 170.88 L 431.98 171.05 L 432.61 171.24 L 433.95 171.38 L 434.74 171.54 L 436.87 172.00 L 437.92 172.36 L 439.28 172.56 L 440.67 173.13 L 441.13 173.27 L 441.55 173.42 L 441.98 173.45 L 442.69 173.64 L 443.41 173.81 L 444.07 173.95 L 444.67 174.11 L 445.04 174.13 L 445.41 174.29 L 445.75 174.45 L 445.90 174.30 L 445.90 173.99 L 445.53 172.16 L 444.98 165.45 L 443.54 155.63 L 443.01 152.03 L 442.49 148.78 L 441.49 143.28 L 440.90 141.51 L 440.56 139.81 L 439.98 137.87 L 439.48 134.64 L 438.48 129.72 L 438.10 128.09 L 436.80 123.03 L 435.89 119.63 L 435.63 118.31 L 435.40 116.99 L 434.25 113.82 L 434.00 112.23 L 432.46 108.19 L 431.87 105.55 L 431.48 104.86 L 431.29 104.44 L 431.07 103.62 L 430.50 102.41 L 430.34 101.58 L 429.19 98.87 L 428.66 96.97 L 427.93 94.79 L 426.67 90.82 L 425.40 87.30 L 424.70 85.54 L 424.42 84.42 L 424.13 83.17 L 423.69 81.61 L 423.23 79.97 L 422.72 77.71 L 421.86 74.07 L 421.48 72.35 L 421.00 70.20 L 420.41 66.84 L 418.80 62.81 L 417.84 59.64 L 416.65 57.19 L 415.42 53.84 L 414.69 51.89 L 413.07 48.49 L 411.69 45.48 L 410.03 42.36 L 409.35 41.10 L 408.88 40.01 L 407.34 37.30 L 406.88 36.43 L 406.46 35.59 L 405.76 34.31 L 405.10 33.35 L 404.47 32.16 L 404.25 31.74 L 404.06 31.34 L 403.87 30.97 L 403.69 30.63 L 403.58 30.46 L 403.41 30.29" stroke="white" stroke-width="16px" />
  </svg>